<?xml version="1.0" standalone="no"?>
<!DOCTYPE svg PUBLIC "-//W3C//DTD SVG 20010904//EN"
 "http://www.w3.org/TR/2001/REC-SVG-20010904/DTD/svg10.dtd">
<svg version="1.0" xmlns="http://www.w3.org/2000/svg"
 width="332.000000pt" height="332.000000pt" viewBox="0 0 332.000000 332.000000"
 preserveAspectRatio="xMidYMid meet">

<g transform="translate(0.000000,332.000000) scale(0.100000,-0.100000)"
fill="#000000" stroke="none">
<path d="M0 1660 l0 -1660 399 0 c220 0 402 4 405 8 3 5 -7 39 -21 78 -18 49
-27 96 -30 165 l-5 95 87 163 c47 90 147 285 221 434 121 243 142 294 205 492
106 331 100 317 135 337 18 10 71 24 118 30 l86 12 0 66 c0 54 -4 70 -20 85
-11 10 -18 20 -15 23 3 3 14 -3 25 -13 19 -17 21 -17 40 0 11 10 22 16 25 13
3 -3 -4 -13 -15 -23 -16 -15 -20 -31 -20 -85 l0 -67 63 -7 c94 -10 155 -33
171 -64 7 -15 37 -103 66 -197 28 -93 65 -210 82 -258 35 -100 181 -402 353
-727 l118 -222 -5 -82 c-4 -49 -16 -112 -32 -159 -14 -43 -24 -83 -21 -88 4
-5 189 -9 456 -9 l449 0 0 1660 0 1660 -1660 0 -1660 0 0 -1660z m1700 1507
c0 -2 -19 -21 -42 -42 l-43 -40 40 43 c36 39 45 47 45 39z m-470 -181 c0 -3
-4 -8 -10 -11 -5 -3 -10 -1 -10 4 0 6 5 11 10 11 6 0 10 -2 10 -4z m637 -38
c-3 -8 -6 -5 -6 6 -1 11 2 17 5 13 3 -3 4 -12 1 -19z m0 -190 c-3 -8 -6 -5 -6
6 -1 11 2 17 5 13 3 -3 4 -12 1 -19z m-732 -428 c10 -11 16 -20 13 -20 -3 0
-13 9 -23 20 -10 11 -16 20 -13 20 3 0 13 -9 23 -20z m1216 -457 c13 -16 12
-17 -3 -4 -10 7 -18 15 -18 17 0 8 8 3 21 -13z m516 -1005 c-3 -8 -6 -5 -6 6
-1 11 2 17 5 13 3 -3 4 -12 1 -19z m0 -230 c-3 -8 -6 -5 -6 6 -1 11 2 17 5 13
3 -3 4 -12 1 -19z m-207 -461 c0 -2 -17 -19 -37 -38 l-38 -34 34 38 c33 34 41
42 41 34z"/>
<path d="M1227 712 c-2 -31 -20 -95 -38 -142 -38 -99 -43 -163 -15 -204 l19
-29 12 34 c6 19 26 56 43 83 67 104 78 202 31 271 -36 53 -46 51 -52 -13z"/>
<path d="M1948 739 c-54 -69 -54 -158 -1 -249 15 -25 39 -69 54 -99 l27 -54
16 31 c24 46 20 104 -15 192 -16 43 -36 109 -43 146 l-12 68 -26 -35z"/>
</g>
</svg>
